<svg xmlns="http://www.w3.org/2000/svg" viewBox="0 0 898.69 280.52"><defs><style>.cls-1{fill:#ffcd33;}</style></defs><g id="Layer_2" data-name="Layer 2"><g id="Layer_1-2" data-name="Layer 1"><g id="Layer_1-2-2" data-name="Layer 1-2"><path class="cls-1" d="M576.43,66.77c4,1.68,8,3.13,12.53,5.18,10,4.46,16,11.45,16,23.25,0,15.91-11.33,25.91-27.47,25.91-20.89,0-26.75-12.87-26.8-25.18a2,2,0,0,1,1.95-2.05h12.05a2,2,0,0,1,2,1.86c.39,6,3.37,10.91,10.8,10.91,5.9,0,10.24-3.37,10.24-9.64,0-5.54-3.5-8.43-8.92-10.72-4.7-2.17-9.64-3.62-14.46-6.39-8-4.22-12.35-11.81-12.35-21.81,0-13.61,9.88-23.5,25.55-23.5,17.89,0,24.75,10.26,24.86,23a2,2,0,0,1-2,2H588.79a2,2,0,0,1-2-1.76c-.57-5.22-3.76-8.84-9.3-8.84-5.79,0-8.92,3.61-8.92,8.31,0,4.34,2.41,7.23,7.83,9.52M466.56,80.12a2,2,0,0,1-2-2,1.73,1.73,0,0,1,.05-.45c1.61-6.07,6.5-10.31,13.75-10.31,7.78,0,12.92,4.33,14.51,10.32a2,2,0,0,1-1.5,2.4,2.3,2.3,0,0,1-.45.05H466.56M508,92.29a2,2,0,0,0,2-1.9c.1-1.92.1-3.53.1-4.73,0-19.28-12.17-31.93-31.56-31.93-18.68,0-31.69,14.22-31.69,33.5,0,20.48,13.49,33.14,33,33.14,14.55,0,23.07-7.49,27.3-15a2,2,0,0,0-.7-2.71l-8.72-5.28a2,2,0,0,0-2.62.52c-3.3,4.6-7.85,8.15-15.26,8.15-8.25,0-14-4.21-15.62-11.3a2,2,0,0,1,1.51-2.39,2.2,2.2,0,0,1,.44,0ZM366.63,53.82a2,2,0,0,1,2-2h11.2a2,2,0,0,0,2-2V38.15a2,2,0,0,0-2-2H336.69a2,2,0,0,0-2,2V49.83a2,2,0,0,0,2,2h11.2a2,2,0,0,1,2,2v63.73a2,2,0,0,0,2,2h12.76a2,2,0,0,0,2-2V53.82M439.1,99.61V77c0-12.41-5.05-22.65-20.12-22.65a18.64,18.64,0,0,0-10.53,2.85,2,2,0,0,1-2.77-.59,2.06,2.06,0,0,1-.32-1.06V33.45a2,2,0,0,0-2-2H391.17a2,2,0,0,0-2,2v84.1a2,2,0,0,0,2,2h12.16a2,2,0,0,0,2-2V78.94c0-6.15,3.14-10.25,8.92-10.25s8.68,4,8.68,10.25v24.55M721.6,99.61V77c0-12.41-5.06-22.65-20.12-22.65A18.64,18.64,0,0,0,691,57.2a2,2,0,0,1-2.77-.59,2.06,2.06,0,0,1-.32-1.06V33.45a2,2,0,0,0-2-2H673.69a2,2,0,0,0-2,2v84.1a2,2,0,0,0,2,2h12.16a2,2,0,0,0,2-2V78.94c0-6.15,3.13-10.25,8.92-10.25s8.67,4,8.67,10.25v24.55M658.1,102a2,2,0,0,0-2.73-.32,19.2,19.2,0,0,1-12,4.11c-9.27,0-17.34-7.1-17.34-18.67,0-10.73,6.62-18.8,17.23-18.8a18.46,18.46,0,0,1,11.77,4A2,2,0,0,0,657.8,72l6.8-8.2a2,2,0,0,0-.2-2.76c-4.08-3.62-10.86-7.35-21.26-7.35-19.29,0-33.26,14.7-33.26,33.5s13,33.13,33.38,33.13a31.17,31.17,0,0,0,21.17-7.71,2,2,0,0,0,.19-2.74L658.1,102m104.25,3.79c-10.36,0-17.59-7.83-17.59-18.67s6.87-18.8,17.47-18.8c10.36,0,17.59,8.07,17.59,18.8s-6.87,18.67-17.47,18.67m-.12-52c-19.4,0-33.62,14.34-33.62,33.5s13.49,33.14,33.62,33.14C782.11,120.37,796,105.9,796,87s-13.38-33.26-33.74-33.26m72.06,52.05c-10.37,0-17.6-7.83-17.6-18.67s6.87-18.8,17.48-18.8c10.36,0,17.59,8.07,17.59,18.8s-6.87,18.67-17.47,18.67m-.12-52c-19.4,0-33.62,14.34-33.62,33.5s13.49,33.14,33.62,33.14c19.88,0,33.73-14.47,33.73-33.38S854.56,53.79,834.2,53.79m64.49,53.4a2,2,0,0,0-2-2c-2.29-.06-5.72-.92-5.72-5.53V33.53a2,2,0,0,0-2-2H876.82a2,2,0,0,0-2,2v70c-.31,7.27,3.58,11.21,3.58,11.21,2.77,3.17,7.19,4.88,13.59,4.88a30.83,30.83,0,0,0,5.08-.33,2,2,0,0,0,1.62-2ZM368.44,221.55c-10.37,0-17.59-7.83-17.59-18.68s6.86-18.8,17.47-18.8c10.36,0,17.59,8.08,17.59,18.8s-6.87,18.68-17.47,18.68m-.12-52.06c-19.4,0-33.62,14.34-33.62,33.5s13.49,33.14,33.62,33.14c19.88,0,33.74-14.46,33.74-33.38s-13.38-33.26-33.74-33.26m58.75-1.56c0-3.86,1.09-7.35,6.51-7.35h1a2,2,0,0,0,2-2V149a2,2,0,0,0-2-2h-3.24c-15.42,0-20.48,8.2-20.48,20.85v.9a2,2,0,0,1-2,2h-2a2,2,0,0,0-2,2v9.63a2,2,0,0,0,2,2h2a2,2,0,0,1,2,2v46.87a2,2,0,0,0,2,2H425a2,2,0,0,0,2-2V186.3a2,2,0,0,1,2-2h5.54a2,2,0,0,0,2-2v-9.63a2,2,0,0,0-2-2H427Zm69.7,13.94c-5.48-2.31-7.92-5.23-7.92-9.62,0-4.75,3.17-8.41,9-8.41,5.65,0,8.88,3.72,9.42,9a1.89,1.89,0,0,0,1.88,1.67h12a1.89,1.89,0,0,0,1.89-1.89h0c-.07-12.91-7-23.33-25.14-23.33-15.84,0-25.83,10-25.83,23.76,0,10.12,4.39,17.79,12.55,22.06,4.88,2.8,9.87,4.26,14.62,6.45,5.49,2.32,9,5.24,9,10.85,0,6.34-4.39,9.75-10.36,9.75-7.57,0-10.56-5.09-10.92-11.17a1.89,1.89,0,0,0-1.89-1.75H472.66a1.89,1.89,0,0,0-1.89,1.89h0c0,12.51,5.87,25.65,27.09,25.65,16.33,0,27.79-10.11,27.79-26.2,0-11.94-6.1-19-16.21-23.52-4.63-2.07-8.65-3.53-12.67-5.24M779.24,196a1.87,1.87,0,0,1-1.89-1.87,1.73,1.73,0,0,1,0-.45c1.59-6.22,6.55-10.6,14-10.6,7.9,0,13.11,4.42,14.69,10.52a1.89,1.89,0,0,1-1.33,2.33,1.66,1.66,0,0,1-.49.07h-25m42.16,12.3a1.89,1.89,0,0,0,1.89-1.79c.11-2,.11-3.67.11-4.91,0-19.5-12.3-32.29-31.92-32.29-18.89,0-32,14.38-32,33.88,0,20.71,13.65,33.51,33.39,33.51,14.81,0,23.44-7.67,27.69-15.34a1.89,1.89,0,0,0-.69-2.52l-9-5.46a1.9,1.9,0,0,0-2.53.54c-3.34,4.67-7.94,8.27-15.46,8.27-8.41,0-14.21-4.31-15.84-11.58a1.91,1.91,0,0,1,1.45-2.27,2.58,2.58,0,0,1,.4,0Zm-142.49,15a1.91,1.91,0,0,0-1.8-1.89c-2.35-.1-5.26-1.09-5.26-6.42V172.75a1.88,1.88,0,0,0-1.87-1.89H657.44a1.89,1.89,0,0,0-1.89,1.89h0v38.93c0,6.21-3.16,10.48-9,10.48s-8.41-4-8.41-10.36V172.75a1.89,1.89,0,0,0-1.89-1.89H623.69a1.89,1.89,0,0,0-1.89,1.89h0v41c0,6.19,1.22,13,5.61,17.63,5,5.28,12.94,6.18,19.76,4.94a21.83,21.83,0,0,0,3.27-.85,16.27,16.27,0,0,0,6.25-3.85,2,2,0,0,1,2.83-.11l.11.11a18.24,18.24,0,0,0,1.4,1.24,13.93,13.93,0,0,0,3.17,1.78,19.59,19.59,0,0,0,8,1.46,28.74,28.74,0,0,0,5.24-.36,1.9,1.9,0,0,0,1.54-1.86ZM561.8,224a1.89,1.89,0,0,0-1.89-1.89H558c-4.63,0-6.22-2.07-6.22-7V186.72a1.89,1.89,0,0,1,1.89-1.88h6.21a1.89,1.89,0,0,0,1.89-1.89h0V173a1.89,1.89,0,0,0-1.89-1.89H553.7a1.89,1.89,0,0,1-1.89-1.88v-6.46a1.89,1.89,0,0,0-1.89-1.89H537.5a2,2,0,0,0-1.93,1.59,10,10,0,0,1-5.84,8.71v0a2,2,0,0,0-1.44,1.9V183a1.89,1.89,0,0,0,1.88,1.9h3.38a1.88,1.88,0,0,1,1.88,1.88h0v33.09c0,10.84,5.12,17.06,17.43,17.06a43,43,0,0,0,7.34-.58,1.87,1.87,0,0,0,1.55-1.86Zm50.12-69.54a2,2,0,0,0-1.95-2.05H597a2.06,2.06,0,0,0-2,2.05v60.71c0,4.87-2.33,6.94-7,6.94h-1.89a1.89,1.89,0,0,0-1.89,1.89h0v10.3a2,2,0,0,0,1.7,2,54.36,54.36,0,0,0,7.86.55c12.31,0,18.18-5.26,18.18-17.06Zm104,67.74c11,0,17.92-8.28,17.92-19.13S726.63,184,715.91,184c-11,0-18,8.28-18,19.13s7.44,19.13,18,19.13m18.35,8.35c-8.1,6.61-19.08,6.27-19.08,6.27-20.23,0-33.63-13.89-33.63-33.51,0-18.88,13.4-33.87,33-33.87a29.77,29.77,0,0,1,15.89,4.16,1.88,1.88,0,0,0,2.59-.61,2,2,0,0,0,.28-1v-23.5a1.9,1.9,0,0,1,1.9-1.89h12.54a1.9,1.9,0,0,1,1.9,1.89v67.11c0,4.3,2.46,5.61,5.17,5.59a1.9,1.9,0,0,1,1.94,1.84v10.55a1.88,1.88,0,0,1-1.54,1.85,27.89,27.89,0,0,1-5.24.37c-6.54,0-10.34-1.77-13.14-5a1.9,1.9,0,0,0-2.61-.26M423,90.39v27.16a2,2,0,0,0,2,2h12.16a2,2,0,0,0,2-2V78.94M705.53,90.39v27.16a2,2,0,0,0,2,2h12.16a2,2,0,0,0,2-2V78.94M142.56,47.36h.07C155,49.09,160.68,54.71,162.42,67h0a.53.53,0,0,0,.05.25.61.61,0,0,0,.8.32.6.6,0,0,0,.36-.44.29.29,0,0,0,0-.13h0c1.73-12.37,7.42-18,19.83-19.72h0a.61.61,0,0,0,.42-.58.6.6,0,0,0-.43-.58h0C171,44.43,165.3,38.74,163.6,26.26a.64.64,0,0,0-.58-.42h-.1a.62.62,0,0,0-.52.61h0c-1.74,12.28-7.38,17.91-19.68,19.64h-.26a.62.62,0,0,0,.1,1.23m49.92,33.79h.05c8.44,1.17,12.34,5,13.52,13.44h0a.49.49,0,0,0,0,.17.42.42,0,0,0,.79-.09v-.08h0c1.18-8.45,5.07-12.3,13.56-13.47h0a.42.42,0,0,0,.25-.54.39.39,0,0,0-.25-.25h0c-8.52-1.17-12.41-5.06-13.58-13.59a.41.41,0,0,0-.4-.29h-.06a.42.42,0,0,0-.35.41h0c-1.2,8.39-5,12.24-13.46,13.42h-.17a.42.42,0,0,0,.05.84h0m-46.6,188.26a129.26,129.26,0,0,0,103.63-60.11H170.16c-.06,0-11.09.55-18.22,7.5a21.42,21.42,0,0,0-6.1,14.85v37.76M31.05,209.23a129.25,129.25,0,0,0,103.78,60.11V234a2.86,2.86,0,0,1-.48-1.68v-.25c-.46-6.56-2.59-11.92-6.38-15.59-7.11-6.87-18.29-7.27-18.35-7.27H31.05M140.26,11.05A129.35,129.35,0,0,0,11.05,140.26v.88c4.86,1.08,14,3.28,25,6.74l43.3-43a16.8,16.8,0,0,1,12-4.88h20.71a6.12,6.12,0,0,0,4.23-1.89l12-12a17.9,17.9,0,0,1,12-5.49,16.75,16.75,0,0,1,12.5,4.83l26.7,27a6,6,0,0,0,4.22,1.84h19.12a16.73,16.73,0,0,1,12,4.85l28.61,29.15c11.29-3.61,20.76-5.92,25.95-7.08v-1A129.35,129.35,0,0,0,140.26,11.05M263.1,180.32a544.28,544.28,0,0,0-73.22,18.51h65.53a129,129,0,0,0,7.69-18.51m3.08-11.07a128,128,0,0,0,2.74-17.18c-11.38,2.72-35.23,9.17-56.67,19.91a231.6,231.6,0,0,0-29.33,18.26,547.42,547.42,0,0,1,83.26-21M68.78,172c-21.8-10.92-46-17.4-57.2-20a130.17,130.17,0,0,0,2.73,17.22,547.86,547.86,0,0,1,83.79,21C88.48,183.36,78.21,176.7,68.78,172m59.39-60a43.07,43.07,0,0,0-3.87-3.53h0S127.55,111.35,128.17,112Zm-7.82,7.65c-.07-.06-.13-.3-.19-.36a36.64,36.64,0,0,0-5.08-4.31c-3-2.14-7.15-4.51-11.39-4.51H91.42a6.16,6.16,0,0,0-4.22,2l-40,39.21a235.33,235.33,0,0,1,26.21,11.07c26.51,13.28,58.09,40,67.08,47.84,9-7.82,40.58-34.56,67.09-47.84a231.27,231.27,0,0,1,24.75-10.54l-25.28-24.88c-1.12-1.12-2.64-1.23-4.22-1.23h-19.1a17.3,17.3,0,0,1-12-5.41L145.16,93.84a6.33,6.33,0,0,0-3.62-2,5.91,5.91,0,0,0-5,1.66l-12.36,12.4h0a3.11,3.11,0,0,0-.23.28,1.69,1.69,0,0,0-.26,1h0v.08a3.47,3.47,0,0,0,.56,1.1v.06a42.84,42.84,0,0,1,4,3.62l1.26,1.26,7.77,7.77a8.67,8.67,0,0,1,2.56,6h0a8.66,8.66,0,0,1-2.41,6.08,2.48,2.48,0,0,1-3.52,0l0,0Zm3.32-12.43h0v0m-106.28,73a125.91,125.91,0,0,0,7.72,18.6h66a542.78,542.78,0,0,0-73.76-18.6M140.26,0A140.26,140.26,0,1,1,0,140.26,140.26,140.26,0,0,1,140.26,0h0"/></g></g></g></svg>